<svg width="375" height="674" viewBox="0 0 375 674" fill="none" xmlns="http://www.w3.org/2000/svg">
<path d="M58.5 283.5V5L331 1L335.5 272C335.5 279.833 330.2 297.2 309 304H102.5C93.1667 303.833 71.3 299.5 58.5 283.5Z" fill="black" stroke="#0A0B0B"/>
<path d="M9.19543 262H56.5V276.5L40.6954 284.5L167.465 429.5L166.695 419.5C166.695 411.9 171.029 410 173.195 410H200.195C206.195 410 208.362 415 208.695 417.5L200.195 487.5L208.695 664C201.297 670.333 182.539 679.2 166.695 664L172.695 487.5L170.195 465L1.19543 276.5C0.52876 271.667 1.19543 262 9.19543 262Z" fill="#414349"/>
<path d="M170.195 465L1.19543 276.5C0.52876 271.667 1.19543 262 9.19543 262H56.5V276.5L40.6954 284.5L167.465 429.5M170.195 465L172.695 487.5L166.695 664C182.539 679.2 201.297 670.333 208.695 664L200.195 487.5L208.695 417.5C208.362 415 206.195 410 200.195 410H173.195C171.029 410 166.695 411.9 166.695 419.5L167.465 429.5M170.195 465L167.465 429.5" stroke="#161616"/>
<path d="M331.5 285V268H369C372.833 268 378.2 271.4 369 285L204 466L209.5 429.5L340 285H331.5Z" fill="#414349" stroke="#161616"/>
<path d="M158.768 183.522L192.574 235.976L221.298 179.645" stroke="white" stroke-width="1.5"/>
<path d="M159.115 47.0828L192.124 100.042L221.696 44.1516" stroke="white" stroke-width="1.5"/>
</svg>
